<?xml version="1.0" encoding="UTF-8"?>
<svg version="1.1" xmlns="http://www.w3.org/2000/svg" width="500" height="500">
<path d="M0 0 C8.58 0 17.16 0 26 0 C27.35477764 4.4056128 28.70683013 8.81190452 30.05273438 13.22021484 C30.50895395 14.71187393 30.96658034 16.20310366 31.42578125 17.69384766 C34.2586118 26.8943346 36.8637316 36.1040969 39.12646484 45.4621582 C40.40973549 50.65944018 41.90184875 55.79034599 43.40087891 60.92871094 C44.10373684 63.35864031 44.79254309 65.79236402 45.48046875 68.2265625 C45.87226318 69.60968628 45.87226318 69.60968628 46.27197266 71.02075195 C46.78468973 72.83141277 47.29615922 74.64242749 47.80615234 76.45385742 C48.97120335 80.55416588 50.18692166 84.6173714 51.5625 88.65234375 C52.91757425 92.6507144 53.96082563 96.6420992 54.9375 100.75 C56.42241024 106.8594883 58.09743421 112.86871762 60.015625 118.859375 C60.67423721 120.96066158 61.28875205 123.07625763 61.859375 125.203125 C64.9198614 136.31752298 69.8895142 147.09181141 78.75 154.765625 C79.1625 155.17296875 79.575 155.5803125 80 156 C80 156.66 80 157.32 80 158 C80.74378906 158.27199219 81.48757812 158.54398438 82.25390625 158.82421875 C84.83758609 159.93046005 86.70309331 161.13558884 88.9375 162.8125 C102.2885733 171.98293418 119.36778124 174.03073052 135.12402344 171.68359375 C142.1005351 170.18107268 148.32413741 167.28201138 154 163 C154.60328125 162.57074219 155.2065625 162.14148438 155.828125 161.69921875 C159.63257686 158.76317438 161.39286829 156.2259198 163.34375 151.83203125 C165.32277247 148.45389595 166.1845478 147.21981927 170.01318359 146.18774414 C173.67913698 146.01460824 177.2136327 146.12709492 180.875 146.375 C182.13570312 146.42011719 183.39640625 146.46523438 184.6953125 146.51171875 C187.80173693 146.62938634 190.89842434 146.79348246 194 147 C193.50452902 151.1239201 192.95290504 154.73005138 191.1875 158.5 C190.83558594 159.25152344 190.48367188 160.00304687 190.12109375 160.77734375 C188.53130626 163.92922208 186.80670433 166.96731774 185 170 C184.34 170 183.68 170 183 170 C182.74863281 170.73605469 182.49726563 171.47210938 182.23828125 172.23046875 C178.0145091 181.67732823 167.68142092 187.18546042 159 192 C158.05253906 192.5259375 157.10507812 193.051875 156.12890625 193.59375 C152.35585835 195.28950186 148.65042842 196.2296645 144.625 197.125 C143.90828125 197.29386719 143.1915625 197.46273437 142.453125 197.63671875 C117.740684 203.30184512 94.37112544 198.22352132 72.93994141 185.27124023 C70.07192782 183.39183591 67.57457195 181.26650351 65 179 C64.22914063 178.35675781 63.45828125 177.71351563 62.6640625 177.05078125 C61.65472656 176.19033203 61.65472656 176.19033203 60.625 175.3125 C59.59246094 174.44044922 59.59246094 174.44044922 58.5390625 173.55078125 C57 172 57 172 57 170 C56.01 169.67 55.02 169.34 54 169 C50 163.62857143 50 163.62857143 50 161 C49.34 161 48.68 161 48 161 C37.6494601 148.24608397 33.82073038 129.51448092 30 114 C12.675 113.505 12.675 113.505 -5 113 C-5.66 115.97 -6.32 118.94 -7 122 C-7.64820781 124.67385722 -8.30878513 127.33774272 -9 130 C-9.165 130.66644531 -9.33 131.33289063 -9.5 132.01953125 C-9.93737498 133.69727435 -10.46182035 135.35182482 -11 137 C-13.66178221 138.3308911 -15.68739396 138.11268993 -18.6640625 138.09765625 C-19.78554687 138.09443359 -20.90703125 138.09121094 -22.0625 138.08789062 C-23.238125 138.07951172 -24.41375 138.07113281 -25.625 138.0625 C-26.80835938 138.05798828 -27.99171875 138.05347656 -29.2109375 138.04882812 C-32.14067507 138.03701467 -35.07031272 138.02054258 -38 138 C-37.41714063 130.03711248 -35.43949829 122.72300027 -33.25 115.0625 C-32.88369404 113.76223134 -32.51805852 112.46177363 -32.15307617 111.16113281 C-31.43335614 108.59944594 -30.70970321 106.03898275 -29.98388672 103.47900391 C-28.94151485 99.79319767 -27.92042818 96.10201524 -26.90600586 92.40844727 C-25.03911133 85.61897193 -23.08870752 78.85729374 -21.08959961 72.10571289 C-18.98307344 64.97636978 -16.92513085 57.83324255 -14.875 50.6875 C-14.53815186 49.51912598 -14.20130371 48.35075195 -13.85424805 47.14697266 C-12.28268454 41.65757868 -10.77244691 36.16739637 -9.4140625 30.62109375 C-8.30543378 26.11239692 -7.01753831 21.76224215 -5.5 17.375 C-3.51377993 11.60732249 -1.75779591 5.8593197 0 0 Z M12 52 C10.87500846 56.01908292 9.75413966 60.0392866 8.63696289 64.06054688 C8.25689051 65.42641683 7.87572248 66.79198243 7.4934082 68.15722656 C6.94188921 70.12745088 6.39440986 72.09876116 5.84765625 74.0703125 C5.51773682 75.25383301 5.18781738 76.43735352 4.84790039 77.65673828 C4.06744579 80.73406199 3.5219255 83.86844697 3 87 C9.6 87 16.2 87 23 87 C22.56816406 85.42347656 22.13632813 83.84695312 21.69140625 82.22265625 C20.59729616 78.21434569 19.52204787 74.20178736 18.46484375 70.18359375 C18.08682617 68.76143555 18.08682617 68.76143555 17.70117188 67.31054688 C17.18306969 65.36136961 16.67021887 63.41079037 16.16210938 61.45898438 C15.78602539 60.05422852 15.78602539 60.05422852 15.40234375 58.62109375 C15.18054443 57.7798999 14.95874512 56.93870605 14.73022461 56.07202148 C14.1022233 53.81430828 14.1022233 53.81430828 12 52 Z " fill="#F4F4F4" transform="translate(168,172)"/>
<path d="M0 0 C1.37460614 2.44374425 2.18127197 4.37014634 3 7 C3.36544922 7.99386719 3.36544922 7.99386719 3.73828125 9.0078125 C5.25396012 13.22062249 6.35529496 17.4407039 7.3125 21.8125 C8.76632939 28.33201617 10.64592545 34.67385455 12.5925293 41.05834961 C14.4990504 47.31359085 16.33672188 53.58493851 18.125 59.875 C18.37306396 60.74729248 18.62112793 61.61958496 18.87670898 62.51831055 C19.35765459 64.21147626 19.83821727 65.90475079 20.31835938 67.59814453 C21.33232748 71.17100207 22.35359249 74.74176363 23.375 78.3125 C23.91666667 80.20833333 24.45833333 82.10416667 25 84 C25.1451001 83.45923828 25.2902002 82.91847656 25.43969727 82.36132812 C29.15501697 68.5479229 33.05765869 54.79845415 37.09570312 41.07617188 C38.6336233 35.84458598 40.16057908 30.60980486 41.6875 25.375 C41.97882813 24.37678223 42.27015625 23.37856445 42.5703125 22.35009766 C44.74047936 14.90757013 46.88142855 7.45737151 49 0 C57.91 0 66.82 0 76 0 C76 45.21 76 90.42 76 137 C68.08 137.33 60.16 137.66 52 138 C49 135 49 135 48.65942383 131.53833008 C48.65989768 130.11530873 48.67678113 128.69223112 48.70703125 127.26953125 C48.71127609 126.51911057 48.71552094 125.76868988 48.71989441 124.99552917 C48.7366755 122.60081974 48.7743251 120.20695466 48.8125 117.8125 C48.82754765 116.1881632 48.84123591 114.5638132 48.85351562 112.93945312 C48.88657695 108.95931052 48.93835406 104.97979837 49 101 C48.07913523 104.01956908 47.16370816 107.04075797 46.25 110.0625 C45.83947388 111.41577393 45.83947388 111.41577393 45.4206543 112.79638672 C44.14237177 117.04630986 42.89758562 121.29290779 41.81640625 125.59765625 C41.55778809 126.62524048 41.55778809 126.62524048 41.29394531 127.67358398 C40.83790171 129.52204063 40.3970135 131.37421713 39.95703125 133.2265625 C39 136 39 136 36 138 C33.45629883 138.13525391 33.45629883 138.13525391 30.45703125 137.9765625 C29.38388672 137.925 28.31074219 137.8734375 27.20507812 137.8203125 C26.08552734 137.75585938 24.96597656 137.69140625 23.8125 137.625 C22.68134766 137.56828125 21.55019531 137.5115625 20.38476562 137.453125 C17.58920953 137.31157786 14.79454159 137.16015835 12 137 C11.66226563 135.97519531 11.32453125 134.95039063 10.9765625 133.89453125 C10.5261226 132.53382737 10.07559724 131.17315178 9.625 129.8125 C9.40328125 129.13896484 9.1815625 128.46542969 8.953125 127.77148438 C7.74209515 124.12058555 6.43036176 120.5759044 5 117 C3.68 111.39 2.36 105.78 1 100 C0.67 112.21 0.34 124.42 0 137 C-8.58 137 -17.16 137 -26 137 C-26 91.79 -26 46.58 -26 0 C-6 -1 -6 -1 0 0 Z " fill="#F6F6F6" transform="translate(267,172)"/>
<path d="M0 0 C0.99 0 1.98 0 3 0 C5.27678571 8.03571429 5.27678571 8.03571429 4 12 C3.34 10.02 2.68 8.04 2 6 C1.01 7.32 0.02 8.64 -1 10 C-0.67 6.7 -0.34 3.4 0 0 Z " fill="#A0A0A0" transform="translate(179,220)"/>
<path d="M0 0 C4.01221221 6.01831832 5.36981234 9.85029479 5 17 C2.14362701 11.72669601 -0.57228292 6.10435119 0 0 Z " fill="#9F9F9F" transform="translate(272,284)"/>
<path d="M0 0 C2.04795423 1.9626228 2.94976638 3.4277307 3.19921875 6.26953125 C3.18858877 8.51954383 3.12958525 10.75385562 3 13 C2.67 13 2.34 13 2 13 C-0.28571429 4.57142857 -0.28571429 4.57142857 0 0 Z " fill="#9E9E9E" transform="translate(201,292)"/>
</svg>
