<?xml version="1.0" encoding="UTF-8"?>
<svg version="1.1" xmlns="http://www.w3.org/2000/svg" width="225" height="225">
<path d="M0 0 C74.25 0 148.5 0 225 0 C225 74.25 225 148.5 225 225 C150.75 225 76.5 225 0 225 C0 150.75 0 76.5 0 0 Z " fill="#DADBDC" transform="translate(0,0)"/>
<path d="M0 0 C55.11 0 110.22 0 167 0 C158.54545455 9.86363636 158.54545455 9.86363636 154.75 10.8125 C148.89658695 12.6660808 145.27049145 15.88251425 142.125 21.125 C140.52294475 25.2191412 139.87241188 28.64641344 139.79467773 33.04394531 C139.77473251 34.04468079 139.75478729 35.04541626 139.73423767 36.07647705 C139.71752518 37.14952087 139.70081268 38.2225647 139.68359375 39.328125 C139.6524221 40.98433868 139.6524221 40.98433868 139.62062073 42.67401123 C139.55526354 46.19927783 139.49630436 49.72461859 139.4375 53.25 C139.39430164 55.64063265 139.35068693 58.03125782 139.30664062 60.421875 C139.19959628 66.28117173 139.09780415 72.14054214 139 78 C137.90276611 78.00808685 136.80553223 78.01617371 135.67504883 78.02450562 C125.31727326 78.10210599 114.9596268 78.18988016 104.60202026 78.28752708 C99.27751249 78.33739958 93.9530237 78.38373034 88.62841797 78.421875 C83.4865836 78.45884216 78.34491153 78.50523295 73.20321655 78.55806351 C71.24493263 78.57654681 69.28661399 78.59167697 67.32827759 78.60334396 C64.57805891 78.6203105 61.82820702 78.64937008 59.078125 78.68115234 C58.27467148 78.68331253 57.47121796 78.68547272 56.64341736 78.68769836 C51.45314506 78.76395154 46.99789635 79.5850642 42 81 C40.6677446 81.3376158 39.33467444 81.6720777 38 82 C38 81.34 38 80.68 38 80 C32.78180574 77.78226744 29.42825156 77.77426578 24 79 C21.2431645 80.69651415 20.30294267 81.95851082 19.40234375 85.0546875 C18.38589749 90.91652321 19.65495294 93.08696214 23 98 C22.80689407 99.85678775 22.59905513 101.71329405 22.31494141 103.55834961 C20.54897116 117.24941043 19.56238519 134.32843677 28.09375 145.8203125 C32.27961539 150.75409905 32.27961539 150.75409905 37.60498047 154.29321289 C40 156 40 156 40.62768555 158.46435547 C40.6306665 159.42229004 40.63364746 160.38022461 40.63671875 161.3671875 C40.66668945 162.94306641 40.66668945 162.94306641 40.69726562 164.55078125 C40.69404297 165.64777344 40.69082031 166.74476563 40.6875 167.875 C40.70414723 170.03913988 40.72861057 172.20323685 40.76171875 174.3671875 C40.76131592 175.32737793 40.76091309 176.28756836 40.76049805 177.27685547 C41.02176772 180.24749966 41.60293589 182.3664338 43 185 C43.99 185.33 44.98 185.66 46 186 C46 198.87 46 211.74 46 225 C30.82 225 15.64 225 0 225 C0 150.75 0 76.5 0 0 Z " fill="#FEFEFE" transform="translate(0,0)"/>
<path d="M0 0 C18.81 0 37.62 0 57 0 C57 74.25 57 148.5 57 225 C33.57 225 10.14 225 -14 225 C-14.0825 218.6475 -14.165 212.295 -14.25 205.75 C-14.28641602 203.7503418 -14.32283203 201.75068359 -14.36035156 199.69042969 C-14.37203679 198.10092238 -14.38222901 196.51140309 -14.390625 194.921875 C-14.41108887 194.10025879 -14.43155273 193.27864258 -14.45263672 192.43212891 C-14.45622925 186.551154 -14.45622925 186.551154 -12.03808594 183.62988281 C-11.36551758 183.09202148 -10.69294922 182.55416016 -10 182 C-8.98989384 178.96968151 -8.9279054 177.079393 -9 173.921875 C-8.99871094 172.92542969 -8.99742187 171.92898437 -8.99609375 170.90234375 C-8.99867889 168.81613315 -9.03208451 166.72971271 -9.09765625 164.64453125 C-9.01035361 157.10740323 -9.01035361 157.10740323 -6.05053711 153.86328125 C-3.65234375 152.046875 -3.65234375 152.046875 -1.26928711 150.55761719 C4.74591955 146.42883628 7.32545891 139.84364152 9 133 C9.19737954 130.2237621 9.31066275 127.54422909 9.31884766 124.76977539 C9.32889328 123.97871399 9.3389389 123.18765259 9.34928894 122.37261963 C9.37996091 119.78097196 9.3971112 117.18942683 9.4140625 114.59765625 C9.43278704 112.79161202 9.4523614 110.98557641 9.4727478 109.17955017 C9.52393919 104.44336041 9.56363424 99.70714233 9.60089111 94.9708252 C9.64101246 90.13087024 9.69206762 85.29103179 9.7421875 80.45117188 C9.83879283 70.96752991 9.92324662 61.48382196 10 52 C10.64026123 51.99589111 11.28052246 51.99178223 11.94018555 51.98754883 C14.85687905 51.95453962 17.77150384 51.88388974 20.6875 51.8125 C21.69490234 51.80669922 22.70230469 51.80089844 23.74023438 51.79492188 C29.9055155 51.63838283 29.9055155 51.63838283 35.14453125 48.57421875 C37.85538826 44.81326133 38.11600281 42.97624144 38.0625 38.375 C38.05347656 37.37210938 38.04445312 36.36921875 38.03515625 35.3359375 C38.02355469 34.56507812 38.01195312 33.79421875 38 33 C36.1128125 32.566875 36.1128125 32.566875 34.1875 32.125 C31.30722457 31.07210494 30.26532367 30.56393518 28.94140625 27.75 C28.47616156 25.98364727 28.03380032 24.21112527 27.61328125 22.43359375 C26.53244764 18.14468076 24.55776591 16.02010417 20.90625 13.62890625 C14.69486671 10.1595735 9.06532832 9.14775401 2 9 C1.34 6.03 0.68 3.06 0 0 Z " fill="#FEFEFE" transform="translate(168,0)"/>
<path d="M0 0 C7.26 0 14.52 0 22 0 C22.25 9.625 22.25 9.625 22.29785156 12.62353516 C22.53515198 18.80208871 23.53040818 22.53040818 28 27 C28.08865208 29.8843382 28.11521296 32.74462158 28.09765625 35.62890625 C28.0962413 36.49313705 28.09482635 37.35736786 28.09336853 38.24778748 C28.08775239 41.01939292 28.07519719 43.7909188 28.0625 46.5625 C28.05748708 48.4368478 28.05292381 50.31119685 28.04882812 52.18554688 C28.03862681 56.79042021 28.01905467 61.3951206 28 66 C16.78 66 5.56 66 -6 66 C-6.09195219 60.53650765 -6.17155047 55.07571089 -6.21972656 49.61206055 C-6.23981305 47.75454602 -6.26708778 45.89709449 -6.30175781 44.03979492 C-6.35040737 41.36621537 -6.37299809 38.69347344 -6.390625 36.01953125 C-6.41127014 35.19226028 -6.43191528 34.36498932 -6.45318604 33.51264954 C-6.45518862 28.33966374 -5.78468643 25.82775605 -2 22 C-0.82530556 19.65061112 -0.79965111 18.04926795 -0.68359375 15.4296875 C-0.64548584 14.62257324 -0.60737793 13.81545898 -0.56811523 12.98388672 C-0.52501221 11.9579541 -0.48190918 10.93202148 -0.4375 9.875 C-0.293125 6.61625 -0.14875 3.3575 0 0 Z " fill="#FEFEFE" transform="translate(89,159)"/>
<path d="M0 0 C6.93 0 13.86 0 21 0 C21.0825 3.17625 21.165 6.3525 21.25 9.625 C21.28641602 10.6145166 21.32283203 11.6040332 21.36035156 12.62353516 C21.43314573 18.43180489 20.78169152 21.53991344 17 26 C16.67 26.33 16.34 26.66 16 27 C15.83976438 29.88252645 15.74045971 32.74378527 15.68359375 35.62890625 C15.66281265 36.49313705 15.64203156 37.35736786 15.62062073 38.24778748 C15.55502886 41.01927445 15.49619582 43.79085921 15.4375 46.5625 C15.39432392 48.43685923 15.35070994 50.31120843 15.30664062 52.18554688 C15.19851032 56.79026566 15.09950917 61.39505441 15 66 C9.39 66 3.78 66 -2 66 C-2.19267565 60.1104461 -2.37133271 54.22069481 -2.53710938 48.33032227 C-2.59544578 46.32727712 -2.65758649 44.32433896 -2.72363281 42.3215332 C-2.81799821 39.43981406 -2.89859769 36.55798504 -2.9765625 33.67578125 C-3.00875885 32.78288895 -3.0409552 31.88999664 -3.0741272 30.970047 C-3.18355952 26.41035777 -2.97197998 23.19514372 -1 19 C-0.64384905 16.69138233 -0.64384905 16.69138233 -0.5859375 14.35546875 C-0.53252197 13.21694458 -0.53252197 13.21694458 -0.47802734 12.05541992 C-0.44402832 11.10900635 -0.4100293 10.16259277 -0.375 9.1875 C-0.25125 6.155625 -0.1275 3.12375 0 0 Z " fill="#C9CACA" transform="translate(68,159)"/>
<path d="M0 0 C0.08736736 3.72901814 0.14051482 7.45777165 0.1875 11.1875 C0.21263672 12.24259766 0.23777344 13.29769531 0.26367188 14.38476562 C0.27333984 15.40634766 0.28300781 16.42792969 0.29296875 17.48046875 C0.3086792 18.41785889 0.32438965 19.35524902 0.34057617 20.32104492 C-0.18686703 24.46988671 -2.0876714 27.0876714 -5 30 C-5.2459409 32.9366021 -5.37375252 35.78562112 -5.4140625 38.7265625 C-5.43342865 39.58937836 -5.4527948 40.45219421 -5.4727478 41.34115601 C-5.53262204 44.10233616 -5.57895998 46.86355784 -5.625 49.625 C-5.66317259 51.49481005 -5.70222389 53.36460238 -5.7421875 55.234375 C-5.83832992 59.82277309 -5.92233166 64.41125351 -6 69 C-11.28 69 -16.56 69 -22 69 C-22.14307369 63.51905988 -22.28547183 58.03810279 -22.42724609 52.55712891 C-22.47556322 50.69286628 -22.52406439 48.82860841 -22.57275391 46.96435547 C-22.64273788 44.28354098 -22.71205825 41.60271003 -22.78125 38.921875 C-22.80312378 38.08944275 -22.82499756 37.2570105 -22.84753418 36.39935303 C-22.86755493 35.61884583 -22.88757568 34.83833862 -22.90820312 34.03417969 C-22.92596802 33.35023132 -22.94373291 32.66628296 -22.96203613 31.96160889 C-23.00048891 29.97473769 -23 27.98724325 -23 26 C-22.67 25.67 -22.34 25.34 -22 25 C-21.84285346 23.36743242 -21.74914586 21.72864662 -21.68359375 20.08984375 C-21.62075195 18.60581055 -21.62075195 18.60581055 -21.55664062 17.09179688 C-21.49766602 15.53041992 -21.49766602 15.53041992 -21.4375 13.9375 C-21.39431641 12.89271484 -21.35113281 11.84792969 -21.30664062 10.77148438 C-21.20018775 8.18113116 -21.0981724 5.59067814 -21 3 C-19.46279297 2.92652344 -19.46279297 2.92652344 -17.89453125 2.8515625 C-16.5338294 2.77648929 -15.17315356 2.70094345 -13.8125 2.625 C-13.13896484 2.5940625 -12.46542969 2.563125 -11.77148438 2.53125 C-7.75063027 2.29588293 -3.70566184 0 0 0 Z " fill="#C8C9C9" transform="translate(160,156)"/>
<path d="M0 0 C4.43728151 -0.11586755 8.87417591 -0.18714058 13.3125 -0.25 C14.57513672 -0.28351562 15.83777344 -0.31703125 17.13867188 -0.3515625 C18.95141602 -0.37089844 18.95141602 -0.37089844 20.80078125 -0.390625 C21.91622314 -0.41157227 23.03166504 -0.43251953 24.1809082 -0.45410156 C27 0 27 0 28.85546875 1.890625 C30.67142794 5.23744398 30.68565673 8.22788074 31 12 C32.11375 12.12375 33.2275 12.2475 34.375 12.375 C38 13 38 13 40 15 C40.74672428 20.31389835 40.6319674 24.75785718 38.1875 29.5625 C35.53473139 32.51844217 34.01624471 33.92315574 29.99731445 34.22705078 C28.7980835 34.21657715 27.59885254 34.20610352 26.36328125 34.1953125 C24.41518555 34.18564453 24.41518555 34.18564453 22.42773438 34.17578125 C21.05598693 34.1590706 19.68424214 34.14214071 18.3125 34.125 C16.92904282 34.11496674 15.54557873 34.10584149 14.16210938 34.09765625 C10.77456548 34.07404967 7.38736928 34.04112037 4 34 C4.32226562 33.24460938 4.64453125 32.48921875 4.9765625 31.7109375 C6.48308192 27.72038607 6.8226067 24.16101003 5.27734375 20.1015625 C3.20074877 16.11651787 1.04165175 13.90855777 -3 12 C-2.53970694 7.39706937 -2.14409985 4.10764392 0 0 Z " fill="#C7C8C9" transform="translate(167,18)"/>
<path d="M0 0 C1.32 0.33 2.64 0.66 4 1 C5.33105261 1.08839021 6.66602596 1.13021084 8 1.125 C8.66 1.12757813 9.32 1.13015625 10 1.1328125 C12.36158102 1.03549022 12.36158102 1.03549022 16 0 C16 12.54 16 25.08 16 38 C10.72 38 5.44 38 0 38 C0 25.46 0 12.92 0 0 Z " fill="#A4A9AD" transform="translate(138,187)"/>
<path d="M0 0 C0.99 0.33 1.98 0.66 3 1 C4.66458673 1.09308544 6.33281997 1.12996185 8 1.125 C9.299375 1.12886719 9.299375 1.12886719 10.625 1.1328125 C13.15011695 1.09594205 13.15011695 1.09594205 16 0 C16 12.54 16 25.08 16 38 C10.72 38 5.44 38 0 38 C0 25.46 0 12.92 0 0 Z " fill="#C8C9C9" transform="translate(46,187)"/>
<path d="M0 0 C0 12.54 0 25.08 0 38 C-5.28 38 -10.56 38 -16 38 C-15.67 25.79 -15.34 13.58 -15 1 C-11.04 1 -7.08 1 -3 1 C-1 0 -1 0 0 0 Z " fill="#C7C8C8" transform="translate(133,187)"/>
<path d="M0 0 C0.99 0.33 1.98 0.66 3 1 C4.49774018 1.09225211 5.99942974 1.1300019 7.5 1.125 C8.2734375 1.12757813 9.046875 1.13015625 9.84375 1.1328125 C12.18447017 1.08145813 12.18447017 1.08145813 15 0 C15 12.54 15 25.08 15 38 C10.05 38 5.1 38 0 38 C0 25.46 0 12.92 0 0 Z " fill="#A3A8AC" transform="translate(67,187)"/>
<path d="M0 0 C0.99 0.33 1.98 0.66 3 1 C3 13.87 3 26.74 3 40 C1.35 40 -0.3 40 -2 40 C-2 27.13 -2 14.26 -2 1 C-1.34 0.67 -0.68 0.34 0 0 Z " fill="#FCFCFC" transform="translate(135,185)"/>
<path d="M0 0 C0.99 0.33 1.98 0.66 3 1 C3 13.87 3 26.74 3 40 C1.68 40 0.36 40 -1 40 C-1.02464775 34.46411467 -1.04283496 28.928261 -1.05493164 23.39233398 C-1.05997244 21.5075627 -1.06680498 19.62279535 -1.07543945 17.73803711 C-1.08751617 15.03498364 -1.09323068 12.33198169 -1.09765625 9.62890625 C-1.10281754 8.78099014 -1.10797882 7.93307404 -1.11329651 7.0594635 C-1.11349195 5.03928932 -1.06206211 3.01922066 -1 1 C-0.67 0.67 -0.34 0.34 0 0 Z " fill="#FEFEFE" transform="translate(63,185)"/>
<path d="M0 0 C0.66 0.33 1.32 0.66 2 1 C2.55812334 5.40297304 3.03315254 9.3393678 0.6171875 13.22265625 C-2.05778199 16.04237518 -3.95540172 17.79108034 -7.8125 18.5625 C-10 18 -10 18 -12 16 C-11.95503902 12.28108426 -10.95217483 10.94471381 -8.49609375 8.10546875 C-7.4866159 7.12238248 -6.46671701 6.14990142 -5.4375 5.1875 C-4.91736328 4.68541016 -4.39722656 4.18332031 -3.86132812 3.66601562 C-2.5831143 2.43470873 -1.29272853 1.2160593 0 0 Z " fill="#C8C9C9" transform="translate(167,0)"/>
<path d="M0 0 C5.28 0 10.56 0 16 0 C16 1.65 16 3.3 16 5 C10.72 5 5.44 5 0 5 C0 3.35 0 1.7 0 0 Z " fill="#2A343D" transform="translate(138,220)"/>
<path d="M0 0 C5.28 0 10.56 0 16 0 C16 1.65 16 3.3 16 5 C10.72 5 5.44 5 0 5 C0 3.35 0 1.7 0 0 Z " fill="#303B46" transform="translate(117,220)"/>
<path d="M0 0 C5.28 0 10.56 0 16 0 C16 1.65 16 3.3 16 5 C10.72 5 5.44 5 0 5 C0 3.35 0 1.7 0 0 Z " fill="#2F3B45" transform="translate(46,220)"/>
<path d="M0 0 C4.95 0 9.9 0 15 0 C15 1.65 15 3.3 15 5 C10.05 5 5.1 5 0 5 C0 3.35 0 1.7 0 0 Z " fill="#27323C" transform="translate(67,220)"/>
<path d="M0 0 C0.99 0 1.98 0 3 0 C3.33 1.32 3.66 2.64 4 4 C2.68 4.33 1.36 4.66 0 5 C-0.5625 3.0625 -0.5625 3.0625 -1 1 C-0.67 0.67 -0.34 0.34 0 0 Z " fill="#3B454F" transform="translate(186,25)"/>
</svg>
